<svg xmlns="http://www.w3.org/2000/svg" viewBox="0 0 645.64 233.92"><defs><style>.cls-1{fill:#231916;}</style></defs><g id="Layer_2" data-name="Layer 2"><g id="レイヤー_1" data-name="レイヤー 1"><path class="cls-1" d="M307.58,139c-.4-.13-.81-.25-1.21-.36a3,3,0,0,1-2.4-2.74c-.08-1-.18-2-.18-3,0-6.72,0-13.43,0-20.15V102.35c0-3.78,0-7.56,0-11.34,0-2.79-1.2-3.62-3.89-3-2.07.49-4.14.91-6.2,1.41a7.45,7.45,0,0,0-1.92.69,1.88,1.88,0,0,0-.14,3.35,3.63,3.63,0,0,0,1.25.53c2.48.54,3.18,1.6,3.28,4.35.08,2.08,0,4.17,0,6.26,0,3-.45,3.42-3.42,3.31a21.2,21.2,0,0,0-8.72,1.42c-8.44,3.32-14.21,11.85-13.12,21.17a17,17,0,0,0,6.29,11.95c4.4,3.47,9.12,4.47,14.26,1.59a27.33,27.33,0,0,1,2.55-1.25,1.49,1.49,0,0,1,2.09.67c1.13,2,2.19,2,4.12,1.48s4-1,6-1.49a6.72,6.72,0,0,0,1.66-.54,2.13,2.13,0,0,0,1.4-2.14A2.07,2.07,0,0,0,307.58,139Zm-11.42-5.18c0,2.31-.79,3.36-2.91,4.24-5.69,2.35-10.28-.51-12.3-4.9a16.4,16.4,0,0,1,1.32-16.65c2.91-4.44,9-4.22,12.38-1.49a4.32,4.32,0,0,1,1.51,3.56c0,2.61,0,5.21,0,7.82h0C296.17,128.85,296.18,131.33,296.16,133.8Z"/><path class="cls-1" d="M436.56,108.9a22.54,22.54,0,0,0-2.72-.15c-2.71,0-5.41,0-8.11.14a2.12,2.12,0,0,0-2.18,1.75,2.32,2.32,0,0,0,1.64,2.3c2.44,1.13,2.81,1.8,2.09,4.44-.95,3.49-2,7-3,10.42a5.6,5.6,0,0,1-.53,1.26c-.59,1-1.34,1-1.91,0a19.75,19.75,0,0,1-1.27-2.86c-1.72-4.54-3.38-9.1-5.13-13.63a8.07,8.07,0,0,0-1.54-2.44,1.85,1.85,0,0,0-2.79,0,8.86,8.86,0,0,0-1.57,2.53c-1.1,2.79-2.06,5.63-3.11,8.44-.94,2.5-1.89,5-2.9,7.47-.17.42-.75,1-1.07,1s-.87-.59-1.15-1a6.22,6.22,0,0,1-.59-1.54c-1.06-3.4-2.14-6.78-3.15-10.19-.59-2-.22-2.75,1.54-3.81a5.29,5.29,0,0,0,.87-.62,1.74,1.74,0,0,0-.1-2.91,5.35,5.35,0,0,0-2.47-.69c-1.66-.1-3.32,0-5,0h0c-1.63,0-3.26,0-4.89,0a4.22,4.22,0,0,0-1.82.25,3.63,3.63,0,0,0-1.57,1.43c-.38.72.07,1.44.71,2a3.55,3.55,0,0,0,.79.56,6.49,6.49,0,0,1,3.81,4.44q2.7,8.22,5.37,16.45c1,3.23,2,6.47,3.1,9.69a2.61,2.61,0,0,0,2.42,2,2.69,2.69,0,0,0,2.57-1.79c.51-1,.86-2.11,1.27-3.17,1.75-4.5,3.46-9,5.26-13.48.25-.63.86-1.47,1.4-1.55.91-.13,1.24.89,1.54,1.64,1.25,3.11,2.48,6.24,3.73,9.35,1,2.42,1.93,4.85,3,7.24a2.57,2.57,0,0,0,2.49,1.74,2.68,2.68,0,0,0,2.43-1.83c.35-.81.63-1.64.92-2.48q3.93-11.46,7.83-22.94a8.29,8.29,0,0,1,4.54-5.34,2,2,0,0,0,1.31-2.37A2.15,2.15,0,0,0,436.56,108.9Z"/><path class="cls-1" d="M490.62,130.07a2.15,2.15,0,0,0-2.71.67c-.89,1.08-1.63,2.28-2.42,3.43-2.26,3.31-5.09,5.84-9.15,6.68A18.31,18.31,0,0,1,457,132.29,27.54,27.54,0,0,1,454,110.78a20.2,20.2,0,0,1,6-10.33,17.82,17.82,0,0,1,12.17-4.57,24.32,24.32,0,0,1,6.17.82c3.86,1,6.1,3.78,7.57,7.32a6.22,6.22,0,0,0,1.34,2.12A2,2,0,0,0,490.6,105a4.16,4.16,0,0,0,.12-1.36c-.3-2.49-.64-5-1-7.46a4.1,4.1,0,0,0-3.43-3.65,44.49,44.49,0,0,0-17.15-1.22c-6.55,1-12.48,3.26-17.35,7.86-5.73,5.41-8.27,12.19-8.29,20,0,.72,0,1.43,0,2.15a9,9,0,0,0,.13,1.16c1.48,10.89,7.37,18.28,17.74,21.87,8.05,2.79,16.2,1.92,24.28-.13a3.7,3.7,0,0,0,2.59-2.1c1.24-3.11,2.37-6.27,3.42-9.45A2.18,2.18,0,0,0,490.62,130.07Z"/><path class="cls-1" d="M377.72,138.46c-.46,0-.91-.09-1.36-.16a2.35,2.35,0,0,1-2-1.86,9.26,9.26,0,0,1-.29-2.22c0-2.45,0-4.89,0-7.34h0c0-2.38,0-4.76,0-7.14a20.43,20.43,0,0,0-.39-3.58,9.84,9.84,0,0,0-13.08-7.57,34.35,34.35,0,0,0-9.56,5,9,9,0,0,0-1.42,1.34,3.59,3.59,0,0,0-.63,4,3.71,3.71,0,0,0,3.46,2.3,3.26,3.26,0,0,0,3.27-2.17c.38-.83.69-1.7,1.08-2.52,1.94-4,5.58-3.54,7.56-1.42a6.81,6.81,0,0,1,1.37,2.22c1.29,3.38.65,4.87-2.68,6.2-2.76,1.09-5.56,2.06-8.34,3.11q-7.51,2.82-6.4,10.47a10,10,0,0,0,10.11,8.54c2.18-.07,4-1.16,5.77-2.23,2.3-1.37,2.74-1.34,4.72.43,1.3,1.16,2.79,2,4.55,1.51a13.37,13.37,0,0,0,5.8-3.48,2.05,2.05,0,0,0,.38-2.29A1.86,1.86,0,0,0,377.72,138.46Zm-11.31-5c0,3.72-1.86,5.51-5.64,5.44a4.38,4.38,0,0,1-4-5.75,4.55,4.55,0,0,1,1.63-2.22,39.75,39.75,0,0,1,5.63-2.87c1.42-.6,2.24,0,2.38,1.59.08.91,0,1.82,0,2.73h0C366.41,132.74,366.42,133.1,366.41,133.46Z"/><path class="cls-1" d="M641.83,135.8a12.78,12.78,0,0,0-1.61.91,10.82,10.82,0,0,1-6.27,1.9c-5.46-.29-10.24-5.57-10.09-11.07a1.83,1.83,0,0,1,1.63-2,7.7,7.7,0,0,1,1.35-.19c3.55-.22,7.09-.4,10.63-.64a49,49,0,0,0,5.14-.58,3.43,3.43,0,0,0,3-3.64,11.4,11.4,0,0,0-4.29-9.35,12.13,12.13,0,0,0-14.55-1.63c-7.45,4-10.85,10.47-11.14,18.74a19.56,19.56,0,0,0,2.36,9.6c3.1,5.68,10.11,9,16.22,7.6a17.86,17.86,0,0,0,8.26-4.64,10.56,10.56,0,0,0,1.88-2.34,1.92,1.92,0,0,0-2.54-2.69Zm-16.75-17.72c.41-2.11,3.4-4.81,5.58-5a5.72,5.72,0,0,1,5.94,3.67c.82,2,.06,3.25-2,3.33-1.95.07-3.9,0-5.85,0v.27c-.84-.07-1.69-.1-2.52-.23a1.31,1.31,0,0,1-1.16-1.54A4.07,4.07,0,0,1,625.08,118.08Z"/><path class="cls-1" d="M608.34,141.27a6.19,6.19,0,0,0-1.58-.75,3.48,3.48,0,0,1-2.58-3.31,20.06,20.06,0,0,1-.07-2.05V92.91c0-.78,0-1.57,0-2.34-.21-2.38-1.3-3.15-3.63-2.59q-3.18.76-6.36,1.56a4.68,4.68,0,0,0-1.29.44c-.73.44-1.43,1-1.35,2A2.2,2.2,0,0,0,593,93.81l.46.17c2.2.8,2.79,1.62,2.86,4,0,.43,0,.85,0,1.28V135c0,.65,0,1.3,0,2a3.67,3.67,0,0,1-2.75,3.62,5.59,5.59,0,0,0-1.25.55c-.72.44-1.29,1.13-1,1.93a3.37,3.37,0,0,0,1.47,1.52,3.86,3.86,0,0,0,1.81.28q5.63,0,11.25,0a4.25,4.25,0,0,0,1.9-.31,3.31,3.31,0,0,0,1.4-1.47A1.56,1.56,0,0,0,608.34,141.27Z"/><path class="cls-1" d="M582.76,135.37a14.68,14.68,0,0,0-2,1.21c-5.25,3.54-11.63,2.34-14.88-3a15.31,15.31,0,0,1-1-14.46c1.72-4.12,5.25-5.86,9.67-5.12a13.14,13.14,0,0,1,5,2.33c2.45,1.62,5,.45,5.44-2.45a4.29,4.29,0,0,0-2.39-4.34,12.87,12.87,0,0,0-6.57-1.66c-.74.07-1.5.08-2.23.21A22.24,22.24,0,0,0,558.09,119c-4,6.68-3.58,17.44,3.61,23.16A15.78,15.78,0,0,0,573,145.75a16,16,0,0,0,9.35-4.27,21.74,21.74,0,0,0,3-3.41,1.79,1.79,0,0,0-.22-2.35A1.92,1.92,0,0,0,582.76,135.37Z"/><path class="cls-1" d="M336.18,108c-2.22.28-3.88,1.56-5.53,2.92-1.37,1.12-1.9,1-2.48-.73s-1.54-2.25-3.25-1.74c-2.34.69-4.67,1.45-7,2.24a2.24,2.24,0,0,0-1.76,2,2.1,2.1,0,0,0,1.62,2.09,3.82,3.82,0,0,1,2.64,4.09c0,2.91,0,5.81,0,8.71h0c0,3,0,6.06,0,9.09,0,2.23-.66,3.1-2.71,3.92a6.51,6.51,0,0,0-1.22.58c-.66.45-1.2,1.14-.87,1.9a3.45,3.45,0,0,0,1.47,1.51,4.18,4.18,0,0,0,1.91.28c3.95,0,7.89,0,11.84,0a6.89,6.89,0,0,0,1.92-.26,1.89,1.89,0,0,0,1.52-1.61,1.78,1.78,0,0,0-1.2-1.92,13.1,13.1,0,0,0-2-.61,3.43,3.43,0,0,1-2.74-3.06,13,13,0,0,1-.13-1.76c0-3.81,0-7.62,0-11.44a9.38,9.38,0,0,1,2-6c1.76-2.26,3.27-2.84,5.91-1.55a4.06,4.06,0,0,0,5.94-3.78C342.18,110,339.3,107.63,336.18,108Z"/><path class="cls-1" d="M543.77,108c-2.15.29-3.74,1.56-5.34,2.87-1.23,1-1.94.77-2.47-.71-.61-1.72-1.4-2.23-3.12-1.75-2.38.67-4.73,1.45-7.08,2.23a2.26,2.26,0,0,0-1.81,2.07,2.12,2.12,0,0,0,1.63,2.08,4,4,0,0,1,2.63,4.14c0,2.35,0,4.69,0,7,0,3.49,0,7,0,10.47,0,2.08-.8,3.57-2.91,4.21a3.77,3.77,0,0,0-1.4.86,1.52,1.52,0,0,0,.09,2.52,5.55,5.55,0,0,0,2.62.8c2,.12,4,0,6,0s3.85,0,5.77,0a8.13,8.13,0,0,0,2-.26,1.9,1.9,0,0,0,1.5-1.62,1.8,1.8,0,0,0-1.13-1.88,6.32,6.32,0,0,0-1.28-.47c-2.71-.75-3.41-1.61-3.43-4.42,0-4.11,0-8.22,0-12.33a9.07,9.07,0,0,1,3.44-7.15,3,3,0,0,1,2.93-.66c.55.18,1.07.46,1.61.69a3.81,3.81,0,0,0,4.22-.49,4.22,4.22,0,0,0,1.56-4.19A5.26,5.26,0,0,0,543.77,108Z"/><path class="cls-1" d="M515.5,141.06a11.07,11.07,0,0,0-1.62-.68,3.06,3.06,0,0,1-2.11-2.48,13.82,13.82,0,0,1-.19-2.13c0-3.88,0-7.76,0-11.64h0c0-4,0-8,0-11.94a10.31,10.31,0,0,0-.15-1.84,2.07,2.07,0,0,0-2.82-1.88c-2.5.64-5,1.36-7.43,2.11a2.3,2.3,0,0,0-1.88,2.12,2.11,2.11,0,0,0,1.7,2.13c2.19.76,2.83,2.34,2.81,4.49-.06,4.2,0,8.41,0,12.62,0,1.63,0,3.26,0,4.89a3.62,3.62,0,0,1-2.66,3.77,5,5,0,0,0-1.31.64,1.59,1.59,0,0,0-.82,1.91,3.34,3.34,0,0,0,1.43,1.45,4,4,0,0,0,1.81.29q5.58,0,11.16,0a6.54,6.54,0,0,0,1.64-.22,2,2,0,0,0,1.63-1.61A1.89,1.89,0,0,0,515.5,141.06Z"/><path class="cls-1" d="M256.12,135.36a5.17,5.17,0,1,0,5,5.26A5.07,5.07,0,0,0,256.12,135.36Z"/><path class="cls-1" d="M507.23,102.69A4.44,4.44,0,0,0,511.78,98a4.59,4.59,0,0,0-4.51-4.68,4.71,4.71,0,0,0-4.52,4.7A4.47,4.47,0,0,0,507.23,102.69Z"/><path class="cls-1" d="M227.79,98.1a81.62,81.62,0,0,0-1.69-8.79c-.81-3.14-1.93-6.18-2.84-9.29-.85-2.87-1.63-5.76-2.49-8.63a69,69,0,0,0-6.94-16.75,112.55,112.55,0,0,0-10.22-13.42,141.33,141.33,0,0,0-11.18-11.77,120.2,120.2,0,0,0-25.62-18.3C156.38,5.62,145.1,1,133.22.13c-6.39-.46-12.59.38-18.92,1.08-6,.66-12,1.17-18,2A76.13,76.13,0,0,0,78.69,7.64c-5.85,2.38-11,6-16.15,9.65s-10.39,7-15.77,10.29A118.93,118.93,0,0,0,31.51,38.07,72.63,72.63,0,0,0,12.16,63.23,88.82,88.82,0,0,0,7,78.29C5.42,84.75,3.62,91.16,2.19,97.66A79.9,79.9,0,0,0,0,116.89a72.55,72.55,0,0,0,3.7,19.39c1,3.14,2,6.25,2.92,9.4s1.67,6.6,2.45,9.93a65.79,65.79,0,0,0,6.35,17.31c2.68,4.76,6.63,8.49,10.7,12.05s8.06,7.23,11.13,11.81c2.69,4,4.84,8.26,8.74,11.3,2.55,2,5.33,3.69,8,5.54a91.33,91.33,0,0,0,8.84,5.85c5.42,2.92,11.41,4.29,17.26,6.09,3.1.95,6,2.36,9.08,3.37a35.47,35.47,0,0,0,9.21,1.5c4.19.24,8.37.27,12.36,1.24a1.1,1.1,0,0,0,1,1.53c1,0,2-.1,2.92-.2.53.24,1.06.48,1.58.77a1.15,1.15,0,0,0,1.65-1.28A84.85,84.85,0,0,0,129.52,229c6.19-2.17,12.46-4,18.74-5.84,6.59-2,13.15-4.06,19.73-6.08,5.39-1.66,10.86-3.07,16.12-5.09A44.2,44.2,0,0,0,198,204c4.72-4.22,8.43-9.74,11.91-15,3.38-5.08,6.44-10.39,10.19-15.21,3-3.82,6.19-7.51,8.24-11.93,2.63-5.65,2.87-11.59,2.77-17.72a47.25,47.25,0,0,1,.68-10.42c.6-2.89,1.55-5.7,1.87-8.64.72-6.44-2.74-11.79-4.35-17.78A81.24,81.24,0,0,1,227.79,98.1Zm3.6,27c-.35,3-1.41,5.89-2,8.86a52,52,0,0,0-.59,10.2c.09,5.93-.07,11.74-2.74,17.16-2.14,4.34-5.37,8-8.3,11.78-3.6,4.7-6.58,9.86-9.86,14.79-3.45,5.19-7.1,10.64-11.82,14.77-8.3,7.27-19.69,9.49-29.93,12.66-6.46,2-12.91,4-19.39,6-6.12,1.84-12.22,3.6-18.25,5.72a66.86,66.86,0,0,1-13.52,3.7c-4.89-2-10.14-2.21-15.46-2.45A37.14,37.14,0,0,1,90.36,227c-2.9-.87-5.63-2.27-8.53-3.2-5.87-1.89-12-3.13-17.5-6a78.6,78.6,0,0,1-8.48-5.54c-2.62-1.83-5.32-3.57-7.91-5.45-4-2.89-6.06-7.1-8.73-11.09a60,60,0,0,0-10.85-11.71c-3.95-3.45-7.89-7-10.61-11.51a60.78,60.78,0,0,1-6.44-17.22c-.74-3.11-1.38-6.23-2.26-9.3s-1.94-6.28-2.91-9.41c-2-6.26-3.63-12.59-3.86-19.18-.46-13,3.74-25.45,6.79-37.89,2.47-10.09,6.39-19.7,12.77-28A78,78,0,0,1,33.1,39.66,117.27,117.27,0,0,1,48.24,29.32c5.15-3.13,10.19-6.36,15.09-9.85,5.16-3.68,10.38-7.45,16.31-9.8,11.1-4.41,23.3-4.95,35-6.26,6.06-.67,12-1.46,18.14-1.06a63.08,63.08,0,0,1,18.32,4.16,123.81,123.81,0,0,1,28.21,15.06A128.48,128.48,0,0,1,202,42.8,105.76,105.76,0,0,1,212.1,56.11c3.11,5.15,5,10.88,6.73,16.63.8,2.74,1.56,5.51,2.37,8.25.88,3,2,5.91,2.74,8.91a85.15,85.15,0,0,1,1.69,8.79,81.39,81.39,0,0,0,1.48,9.21C228.67,113.66,232.1,118.88,231.39,125.08Z"/></g></g></svg>